<?xml version="1.0" encoding="UTF-8"?>
<!DOCTYPE svg PUBLIC "-//W3C//DTD SVG 1.1//EN" "http://www.w3.org/Graphics/SVG/1.1/DTD/svg11.dtd">
<!-- Creator: CorelDRAW X8 -->
<svg xmlns="http://www.w3.org/2000/svg" xml:space="preserve" width="8.5in" height="11in" version="1.1" style="shape-rendering:geometricPrecision; text-rendering:geometricPrecision; image-rendering:optimizeQuality; fill-rule:evenodd; clip-rule:evenodd"
viewBox="0 0 8500 11000"
 xmlns:xlink="http://www.w3.org/1999/xlink">
 <defs>
  <style type="text/css">
   <![CDATA[
    .fil0 {fill:#1A1A1A}
   ]]>
  </style>
 </defs>
 <g id="Layer_x0020_1">
  <metadata id="CorelCorpID_0Corel-Layer"/>
  <g id="_1870446523280">
   <path class="fil0" d="M8750 4890l366 388c-23,56 -17,39 -73,94 -26,26 -43,42 -69,69 -153,153 -947,963 -983,971 -136,66 -1357,304 -1590,346 -1498,272 -2966,404 -4494,326 -266,-14 -643,-32 -892,-84 -101,-6 -22,0 -120,-11 -384,-66 -719,-122 -1091,-204 -517,-113 -1195,-351 -1671,-593 -215,-110 -426,-224 -622,-365 -133,-95 -305,-183 -269,-381 22,-118 208,-228 325,-314 65,-48 120,-88 187,-134l198 -135c176,-127 610,-376 816,-488 1243,-677 2697,-1053 4154,-1042 1546,12 2836,383 4190,1004 367,168 913,482 1244,715 135,95 189,-85 394,-162z"/>
   <path class="fil0" d="M7991 6412c36,-8 830,-818 983,-971 26,-27 43,-43 69,-69 56,-55 50,-38 73,-94l-366 -388c150,-109 731,-439 883,-513 293,-145 632,-330 986,-402 310,-62 347,37 297,324 -55,317 -206,750 -369,1021 -53,87 -220,380 -279,423 71,171 171,350 247,539 76,189 144,374 212,565 61,171 208,469 3,559 -330,145 -1874,-811 -2251,-1060 -113,-76 -248,41 -488,66z"/>
   <path class="fil0" d="M5791 3688l-930 -252c-697,-151 -1441,-266 -2162,-200l-223 24c-34,-6 -6,8 -24,-11 -27,-30 -60,-592 92,-780 173,-215 744,-150 1006,-113 718,102 1348,379 1950,733 89,53 98,56 151,154 58,106 173,296 140,445z"/>
   <path class="fil0" d="M3226 7181c259,0 539,-21 796,-38 258,-18 514,-62 760,-78 31,155 138,522 66,667 -46,93 -176,42 -284,30 -367,-41 -1279,-129 -1338,-581z"/>
   <path class="fil0" d="M762 7056c311,50 112,5 351,61 80,-11 255,7 344,17 107,12 162,95 210,163 110,158 286,554 240,753 -95,32 -429,-49 -531,-91 -170,-38 -440,-274 -535,-391 -94,-115 -346,-441 -359,-564l280 52z"/>
   <path class="fil0" d="M8441 6670c-366,88 -956,347 -1408,390 -177,17 -303,-98 -361,-254 35,-24 69,-23 192,-45 71,-12 136,-27 209,-42l1210 -279c44,43 133,169 158,230z"/>
  </g>
 </g>
</svg>
